<?xml version="1.0" encoding="UTF-8" standalone="no"?>
<!-- Created with Inkscape (http://www.inkscape.org/) -->

<svg
   xmlns:dc="http://purl.org/dc/elements/1.1/"
   xmlns:cc="http://creativecommons.org/ns#"
   xmlns:rdf="http://www.w3.org/1999/02/22-rdf-syntax-ns#"
   xmlns:svg="http://www.w3.org/2000/svg"
   xmlns="http://www.w3.org/2000/svg"
   xmlns:sodipodi="http://sodipodi.sourceforge.net/DTD/sodipodi-0.dtd"
   xmlns:inkscape="http://www.inkscape.org/namespaces/inkscape"
   width="70"
   height="30"
   viewBox="0 0 70 30"
   id="svg2"
   version="1.1"
   inkscape:version="0.92.3 (2405546, 2018-03-11)"
   sodipodi:docname="resources.svg">
  <sodipodi:namedview
     id="base"
     pagecolor="#ffffff"
     bordercolor="#666666"
     borderopacity="1.0"
     inkscape:pageopacity="0.0"
     inkscape:pageshadow="2"
     inkscape:zoom="4.9570138"
     inkscape:cx="26.282793"
     inkscape:cy="9.9884396"
     inkscape:document-units="px"
     inkscape:current-layer="layer1"
     showgrid="true"
     showguides="true"
     fit-margin-top="1"
     fit-margin-left="1"
     fit-margin-right="1"
     fit-margin-bottom="1"
     inkscape:window-width="960"
     inkscape:window-height="1145"
     inkscape:window-x="2640"
     inkscape:window-y="27"
     inkscape:window-maximized="0"
     units="px"
     inkscape:document-rotation="0">
    <inkscape:grid
       type="xygrid"
       id="grid3338"
       originx="-363.76983"
       originy="-514.13396"
       spacingx="1.0666667"
       spacingy="1.0666667" />
  </sodipodi:namedview>
  <defs
     id="defs4">
    <inkscape:perspective
       sodipodi:type="inkscape:persp3d"
       inkscape:vp_x="-13.348994 : 13.934045 : 1"
       inkscape:vp_y="0 : 1622.2205 : 0"
       inkscape:vp_z="50.507163 : 22.045147 : 1"
       inkscape:persp3d-origin="42.926618 : 24.462408 : 1"
       id="perspective4309" />
    <marker
       inkscape:stockid="EmptyTriangleOutL"
       orient="auto"
       refY="0"
       refX="0"
       id="EmptyTriangleOutL"
       style="overflow:visible"
       inkscape:isstock="true">
      <path
         id="path4306"
         d="M 5.77,0 -2.88,5 V -5 Z"
         style="fill:#ffffff;fill-rule:evenodd;stroke:#000000;stroke-width:1.00000003pt;stroke-opacity:1"
         transform="matrix(0.8,0,0,0.8,-4.8,0)"
         inkscape:connector-curvature="0" />
    </marker>
    <marker
       inkscape:stockid="Arrow2Lend"
       orient="auto"
       refY="0"
       refX="0"
       id="Arrow2Lend"
       style="overflow:visible"
       inkscape:isstock="true">
      <path
         id="path4167"
         style="fill:#000000;fill-opacity:1;fill-rule:evenodd;stroke:#000000;stroke-width:0.625;stroke-linejoin:round;stroke-opacity:1"
         d="M 8.7185878,4.0337352 -2.2072895,0.01601326 8.7185884,-4.0017078 c -1.7454984,2.3720609 -1.7354408,5.6174519 -6e-7,8.035443 z"
         transform="matrix(-1.1,0,0,-1.1,-1.1,0)"
         inkscape:connector-curvature="0" />
    </marker>
    <marker
       inkscape:stockid="TriangleInL"
       orient="auto"
       refY="0"
       refX="0"
       id="TriangleInL"
       style="overflow:visible"
       inkscape:isstock="true">
      <path
         id="path4279"
         d="M 5.77,0 -2.88,5 V -5 Z"
         style="fill:#000000;fill-opacity:1;fill-rule:evenodd;stroke:#000000;stroke-width:1.00000003pt;stroke-opacity:1"
         transform="scale(-0.8)"
         inkscape:connector-curvature="0" />
    </marker>
    <marker
       inkscape:stockid="Arrow1Lend"
       orient="auto"
       refY="0"
       refX="0"
       id="Arrow1Lend"
       style="overflow:visible"
       inkscape:isstock="true">
      <path
         id="path4149"
         d="M 0,0 5,-5 -12.5,0 5,5 Z"
         style="fill:#000000;fill-opacity:1;fill-rule:evenodd;stroke:#000000;stroke-width:1.00000003pt;stroke-opacity:1"
         transform="matrix(-0.8,0,0,-0.8,-10,0)"
         inkscape:connector-curvature="0" />
    </marker>
    <marker
       inkscape:stockid="Arrow1Lstart"
       orient="auto"
       refY="0"
       refX="0"
       id="Arrow1Lstart"
       style="overflow:visible"
       inkscape:isstock="true">
      <path
         id="path4146"
         d="M 0,0 5,-5 -12.5,0 5,5 Z"
         style="fill:#000000;fill-opacity:1;fill-rule:evenodd;stroke:#000000;stroke-width:1.00000003pt;stroke-opacity:1"
         transform="matrix(0.8,0,0,0.8,10,0)"
         inkscape:connector-curvature="0" />
    </marker>
    <inkscape:perspective
       sodipodi:type="inkscape:persp3d"
       inkscape:vp_x="71.755521 : 13.985925 : 1"
       inkscape:vp_y="0 : 1622.2205 : 0"
       inkscape:vp_z="7.8993633 : 22.097027 : 1"
       inkscape:persp3d-origin="15.479898 : 24.514281 : 1"
       id="perspective4309-7" />
    <clipPath
       clipPathUnits="userSpaceOnUse"
       id="clipPath4298">
      <circle
         style="fill:none;stroke:#000000;stroke-width:1;stroke-miterlimit:4;stroke-dasharray:none"
         id="circle4300"
         cx="105"
         cy="136.88899"
         r="58.083546" />
    </clipPath>
  </defs>
  <metadata
     id="metadata7">
    <rdf:RDF>
      <cc:Work
         rdf:about="">
        <dc:format>image/svg+xml</dc:format>
        <dc:type
           rdf:resource="http://purl.org/dc/dcmitype/StillImage" />
        <dc:title></dc:title>
      </cc:Work>
    </rdf:RDF>
  </metadata>
  <g
     inkscape:label="Layer 1"
     inkscape:groupmode="layer"
     id="layer1"
     transform="translate(-341.65931,-540.26931)">
    <text
       xml:space="preserve"
       style="font-style:normal;font-weight:normal;line-height:0%;font-family:sans-serif;letter-spacing:0px;word-spacing:0px;fill:#000000;fill-opacity:1;stroke:none;stroke-width:1px;stroke-linecap:butt;stroke-linejoin:miter;stroke-opacity:1"
       x="345.96838"
       y="569.12769"
       id="text4547"><tspan
         style="font-size:10px;line-height:1.25"
         sodipodi:role="line"
         id="tspan4549"
         x="345.96838"
         y="569.12769">RESOURCES</tspan></text>
    <g
       transform="translate(-1.75e-6,0.31739555)"
       id="g1613">
      <g
         transform="translate(-64.49826,-43.04032)"
         id="g4857">
        <path
           style="fill:#008000;fill-opacity:1;fill-rule:evenodd;stroke:#000000;stroke-width:1px;stroke-linecap:butt;stroke-linejoin:miter;stroke-opacity:1"
           d="m 441.65757,600.49616 v -15.3025 l 10,1 v 15 z"
           id="path4511-7"
           inkscape:connector-curvature="0"
           sodipodi:nodetypes="ccccc" />
        <path
           style="fill:#008000;fill-opacity:1;fill-rule:evenodd;stroke:#000000;stroke-width:1px;stroke-linecap:butt;stroke-linejoin:miter;stroke-opacity:1"
           d="m 430.65757,601.19366 v -15 l 10,-1 v 15.3025 z"
           id="path4507-6"
           inkscape:connector-curvature="0"
           sodipodi:nodetypes="ccccc" />
        <path
           style="fill:#008000;fill-opacity:1;fill-rule:evenodd;stroke:#000000;stroke-width:1px;stroke-linecap:butt;stroke-linejoin:miter;stroke-opacity:1"
           d="m 430.15757,602.19366 v -15 l 10,-1 v 15 z"
           id="path4507"
           inkscape:connector-curvature="0" />
        <g
           id="g4363"
           style="stroke:none;stroke-opacity:1">
          <path
             id="rect4551"
             d="m 430.30261,587.70092 c 0,0 9.39477,-0.93947 9.39477,-0.93947 0,0 0,0 0,0 0,0 0,14.26202 0,14.26202 0,0 0,10e-6 0,10e-6 0,0 -9.39477,0.93947 -9.39477,0.93947 -1e-5,0 -1e-5,0 -1e-5,0 0,0 0,-14.26202 0,-14.26202 0,-10e-6 0,-10e-6 1e-5,-10e-6 0,0 0,0 0,0"
             style="fill:none;stroke:none;stroke-width:0.95162362;stroke-linejoin:round;stroke-miterlimit:4;stroke-dasharray:none;stroke-opacity:1"
             inkscape:connector-curvature="0" />
        </g>
        <path
           style="fill:#008000;fill-opacity:1;fill-rule:evenodd;stroke:#000000;stroke-width:1px;stroke-linecap:butt;stroke-linejoin:miter;stroke-opacity:1"
           d="m 442.15757,601.19366 v -15 l 10,1 v 15 z"
           id="path4511"
           inkscape:connector-curvature="0" />
        <path
           style="fill:none;stroke:none;stroke-width:0.95162362;stroke-linejoin:round;stroke-miterlimit:4;stroke-dasharray:none;stroke-opacity:1"
           d="m 442.46019,586.59291 c 0,0 9.39477,0.93947 9.39477,0.93947 0,0 0,0 0,10e-6 0,0 0,14.26202 0,14.26202 0,0 0,0 0,0 0,0 -9.39477,-0.93947 -9.39477,-0.93947 -1e-5,0 -1e-5,-1e-5 -1e-5,-1e-5 0,0 0,-14.26202 0,-14.26202 0,0 0,0 1e-5,0 0,0 0,0 0,0"
           id="rect4551-3"
           inkscape:connector-curvature="0" />
        <path
           style="fill:none;fill-rule:evenodd;stroke:#000000;stroke-width:1px;stroke-linecap:butt;stroke-linejoin:miter;stroke-opacity:1"
           d="m 440.15757,601.24616 c 0,0 0.82936,-0.5 1,-0.5 0.17065,0 1,0.5 1,0.5"
           id="path4855"
           inkscape:connector-curvature="0"
           sodipodi:nodetypes="csc" />
        <text
           transform="rotate(4.3139961)"
           id="text902"
           y="555.1958"
           x="486.59042"
           style="font-style:normal;font-weight:normal;font-size:2.66666675px;line-height:1.25;font-family:sans-serif;letter-spacing:0px;word-spacing:0px;fill:#000000;fill-opacity:1;stroke:none"
           xml:space="preserve"><tspan
             y="555.1958"
             x="486.59042"
             id="tspan900"
             sodipodi:role="line">Breed</tspan><tspan
             id="tspan926"
             y="558.52911"
             x="486.59042"
             sodipodi:role="line">CAFS</tspan><tspan
             id="tspan928"
             y="561.86249"
             x="486.59042"
             sodipodi:role="line" /></text>
        <text
           transform="rotate(4.3139961)"
           id="text906"
           y="564.35236"
           x="486.52203"
           style="font-style:normal;font-weight:normal;font-size:5.33333349px;line-height:1.25;font-family:sans-serif;letter-spacing:0px;word-spacing:0px;fill:#000000;fill-opacity:1;stroke:none"
           xml:space="preserve"><tspan
             y="564.35236"
             x="486.52203"
             id="tspan904"
             sodipodi:role="line">DB</tspan></text>
      </g>
    </g>
  </g>
</svg>
