<?xml version="1.0" encoding="UTF-8" standalone="no"?>
<!-- Created with Inkscape (http://www.inkscape.org/) -->

<svg
   xmlns:dc="http://purl.org/dc/elements/1.1/"
   xmlns:cc="http://creativecommons.org/ns#"
   xmlns:rdf="http://www.w3.org/1999/02/22-rdf-syntax-ns#"
   xmlns:svg="http://www.w3.org/2000/svg"
   xmlns="http://www.w3.org/2000/svg"
   xmlns:sodipodi="http://sodipodi.sourceforge.net/DTD/sodipodi-0.dtd"
   xmlns:inkscape="http://www.inkscape.org/namespaces/inkscape"
   width="700"
   height="300"
   viewBox="0 0 185.20834 79.374998"
   version="1.1"
   id="svg8"
   inkscape:version="0.92.3 (2405546, 2018-03-11)"
   sodipodi:docname="correct_large.svg">
  <defs
     id="defs2">
    <marker
       inkscape:stockid="Arrow1Lstart"
       orient="auto"
       refY="0"
       refX="0"
       id="Arrow1Lstart"
       style="overflow:visible"
       inkscape:isstock="true">
      <path
         id="path5469"
         d="M 0,0 5,-5 -12.5,0 5,5 Z"
         style="fill:#ff0000;fill-opacity:1;fill-rule:evenodd;stroke:#ff0000;stroke-width:1.00000003pt;stroke-opacity:1"
         transform="matrix(0.8,0,0,0.8,10,0)"
         inkscape:connector-curvature="0" />
    </marker>
  </defs>
  <sodipodi:namedview
     id="base"
     pagecolor="#ffffff"
     bordercolor="#666666"
     borderopacity="1.0"
     inkscape:pageopacity="0.0"
     inkscape:pageshadow="2"
     inkscape:zoom="1.4444592"
     inkscape:cx="138.20996"
     inkscape:cy="44.492495"
     inkscape:document-units="mm"
     inkscape:current-layer="g7100"
     inkscape:document-rotation="0"
     showgrid="false"
     inkscape:window-width="1920"
     inkscape:window-height="1145"
     inkscape:window-x="1680"
     inkscape:window-y="27"
     inkscape:window-maximized="1"
     fit-margin-top="1"
     fit-margin-left="1"
     fit-margin-right="1"
     fit-margin-bottom="1"
     units="px" />
  <metadata
     id="metadata5">
    <rdf:RDF>
      <cc:Work
         rdf:about="">
        <dc:format>image/svg+xml</dc:format>
        <dc:type
           rdf:resource="http://purl.org/dc/dcmitype/StillImage" />
        <dc:title></dc:title>
      </cc:Work>
    </rdf:RDF>
  </metadata>
  <g
     inkscape:label="Layer 1"
     inkscape:groupmode="layer"
     id="layer1"
     transform="translate(-74.192879,-82.9901)">
    <g
       id="g4958"
       transform="translate(-5.0000028)">
      <g
         id="g1136"
         transform="rotate(-15,87.006281,161.5817)" />
      <flowRoot
         xml:space="preserve"
         id="flowRoot2180"
         style="font-size:16.00000191px;line-height:1.25;font-family:sans-serif;letter-spacing:0px;word-spacing:0px"><flowRegion
           id="flowRegion2182"><rect
             id="rect2184"
             width="77.781746"
             height="34.117901"
             x="-18.031223"
             y="-12.072854" /></flowRegion><flowPara
           id="flowPara2186" /></flowRoot>      <text
         xml:space="preserve"
         style="font-style:normal;font-weight:normal;font-size:0.35277778px;line-height:1.25;font-family:sans-serif;letter-spacing:0px;word-spacing:0px;fill:#000000;fill-opacity:1;stroke:none;stroke-width:0.26458332"
         x="81.979973"
         y="156.39143"
         id="text5821"><tspan
           sodipodi:role="line"
           id="tspan5819"
           x="81.979973"
           y="156.70355"
           style="stroke-width:0.26458332" /></text>
      <text
         xml:space="preserve"
         style="font-style:normal;font-weight:normal;font-size:0.35277778px;line-height:1.25;font-family:sans-serif;letter-spacing:0px;word-spacing:0px;fill:#000000;fill-opacity:1;stroke:none;stroke-width:0.26458332"
         x="81.979973"
         y="156.39143"
         id="text5829"><tspan
           sodipodi:role="line"
           id="tspan5827"
           x="81.979973"
           y="156.70355"
           style="stroke-width:0.26458332" /></text>
      <g
         transform="matrix(0,-0.04187918,0.04187918,0,81.71494,159.73066)"
         id="g856">
        <g
           id="g846">
          <g
             id="g7100"
             transform="translate(0,40.280167)">
            <g
               id="g935"
               transform="matrix(10,0,0,10,549.81954,904.52201)">
              <text
                 id="text4898"
                 y="162.06055"
                 x="81.568619"
                 style="font-size:2.82222223px;font-family:sans-serif;stroke-width:0.26458332"
                 xml:space="preserve"
                 transform="matrix(0,23.878214,-23.878214,0,3814.0828,-1991.487)"><tspan
                   style="font-size:2.82222223px;stroke-width:0.26458332"
                   y="162.06055"
                   x="81.568619"
                   id="tspan4896"
                   sodipodi:role="line">CORRECT</tspan></text>
              <g
                 transform="matrix(0,23.878214,-23.878214,0,3818.5541,-1958.4643)"
                 id="g6639">
                <path
                   style="fill:#f2f2f2;stroke:#000000;stroke-width:0.05;stroke-miterlimit:4;stroke-dasharray:none;stroke-opacity:1"
                   d="m 86.308241,154.77213 -4.518715,0.98102 1.023062,3.81812 4.518716,-0.98102 z"
                   id="rect895"
                   inkscape:connector-curvature="0"
                   sodipodi:nodetypes="ccccc" />
                <text
                   transform="rotate(-13)"
                   id="text6468-06"
                   y="172.61137"
                   x="46.32056"
                   style="font-style:normal;font-weight:normal;font-size:0.35277778px;line-height:1.25;font-family:sans-serif;letter-spacing:0px;word-spacing:0px;fill:#000000;fill-opacity:1;stroke:none;stroke-width:0.26458332"
                   xml:space="preserve"><tspan
                     style="stroke-width:0.26458332"
                     y="172.61137"
                     x="46.32056"
                     id="tspan6466-2"
                     sodipodi:role="line">Marsellesa</tspan></text>
                <path
                   style="fill:none;stroke:#000000;stroke-width:0.01408539;stroke-linecap:butt;stroke-linejoin:miter;stroke-miterlimit:4;stroke-dasharray:none;stroke-opacity:1"
                   d="m 86.498689,155.41042 -4.518715,0.98102"
                   id="path950"
                   inkscape:connector-curvature="0" />
                <path
                   style="fill:none;stroke:#000000;stroke-width:0.01408539;stroke-linecap:butt;stroke-linejoin:miter;stroke-miterlimit:4;stroke-dasharray:none;stroke-opacity:1"
                   d="m 86.664209,156.02815 -4.518715,0.98102"
                   id="path950-3"
                   inkscape:connector-curvature="0" />
                <path
                   style="fill:#f2f2f2;stroke:#000000;stroke-width:0.01408539;stroke-linecap:butt;stroke-linejoin:miter;stroke-miterlimit:4;stroke-dasharray:none;stroke-opacity:1"
                   d="m 86.829726,156.64587 -4.518715,0.98101"
                   id="path950-5"
                   inkscape:connector-curvature="0" />
                <path
                   style="fill:none;stroke:#000000;stroke-width:0.01408539;stroke-linecap:butt;stroke-linejoin:miter;stroke-miterlimit:4;stroke-dasharray:none;stroke-opacity:1"
                   d="m 86.995246,157.2636 -4.518715,0.98101"
                   id="path950-6"
                   inkscape:connector-curvature="0" />
                <path
                   style="fill:none;stroke:#000000;stroke-width:0.01408539;stroke-linecap:butt;stroke-linejoin:miter;stroke-miterlimit:4;stroke-dasharray:none;stroke-opacity:1"
                   d="m 87.160769,157.88134 -4.518718,0.981"
                   id="path950-2"
                   inkscape:connector-curvature="0" />
                <path
                   style="fill:none;stroke:#000000;stroke-width:0.01408539;stroke-linecap:butt;stroke-linejoin:miter;stroke-miterlimit:4;stroke-dasharray:none;stroke-opacity:1"
                   d="m 83.034414,155.46561 1.02306,3.81811"
                   id="path1000"
                   inkscape:connector-curvature="0" />
                <path
                   style="fill:none;stroke:#000000;stroke-width:0.01408539;stroke-linecap:butt;stroke-linejoin:miter;stroke-miterlimit:4;stroke-dasharray:none;stroke-opacity:1"
                   d="m 82.42043,155.6142 1.02306,3.81812"
                   id="path1000-1"
                   inkscape:connector-curvature="0" />
                <text
                   transform="rotate(-13)"
                   id="text6468-8"
                   y="173.88069"
                   x="46.384758"
                   style="font-style:normal;font-weight:normal;font-size:0.35277778px;line-height:1.25;font-family:sans-serif;letter-spacing:0px;word-spacing:0px;fill:#000000;fill-opacity:1;stroke:none;stroke-width:0.26458332"
                   xml:space="preserve"><tspan
                     style="stroke-width:0.26458332"
                     y="173.88069"
                     x="46.384758"
                     id="tspan6466-7"
                     sodipodi:role="line">Marsellesa</tspan></text>
                <path
                   style="fill:none;stroke:#000000;stroke-width:0.01408539;stroke-linecap:butt;stroke-linejoin:miter;stroke-miterlimit:4;stroke-dasharray:none;stroke-opacity:1"
                   d="m 85.613436,154.90943 1.02306,3.81811"
                   id="path1000-2"
                   inkscape:connector-curvature="0" />
                <text
                   transform="rotate(-13)"
                   id="text6468-0"
                   y="171.33595"
                   x="46.266071"
                   style="font-style:normal;font-weight:normal;font-size:0.35277778px;line-height:1.25;font-family:sans-serif;letter-spacing:0px;word-spacing:0px;fill:#000000;fill-opacity:1;stroke:none;stroke-width:0.26458332"
                   xml:space="preserve"><tspan
                     style="stroke-width:0.26458332"
                     y="171.33595"
                     x="46.266071"
                     id="tspan6466-9"
                     sodipodi:role="line">Marsellesa</tspan></text>
                <text
                   transform="rotate(-13)"
                   id="text6468-3"
                   y="171.97609"
                   x="46.267834"
                   style="font-style:normal;font-weight:normal;font-size:0.35277778px;line-height:1.25;font-family:sans-serif;letter-spacing:0px;word-spacing:0px;fill:#000000;fill-opacity:1;stroke:none;stroke-width:0.26458332"
                   xml:space="preserve"><tspan
                     style="stroke-width:0.26458332"
                     y="171.97609"
                     x="46.267834"
                     id="tspan6466-6"
                     sodipodi:role="line">Marsellesa</tspan></text>
                <text
                   transform="rotate(-10)"
                   id="text5825"
                   y="168.06357"
                   x="53.727951"
                   style="font-style:normal;font-weight:normal;font-size:0.35277778px;line-height:1.25;font-family:sans-serif;letter-spacing:0px;word-spacing:0px;fill:#000000;fill-opacity:1;stroke:none;stroke-width:0.26458332"
                   xml:space="preserve"><tspan
                     style="stroke-width:0.26458332"
                     y="168.06357"
                     x="53.727951"
                     id="tspan5823"
                     sodipodi:role="line">1</tspan></text>
                <text
                   transform="rotate(-10)"
                   id="text5825-3"
                   y="168.69467"
                   x="53.804192"
                   style="font-style:normal;font-weight:normal;font-size:0.35277778px;line-height:1.25;font-family:sans-serif;letter-spacing:0px;word-spacing:0px;fill:#000000;fill-opacity:1;stroke:none;stroke-width:0.26458332"
                   xml:space="preserve"><tspan
                     style="stroke-width:0.26458332"
                     y="168.69467"
                     x="53.804192"
                     id="tspan5823-6"
                     sodipodi:role="line">2</tspan></text>
                <text
                   transform="rotate(-10)"
                   id="text5825-7"
                   y="169.33923"
                   x="53.853046"
                   style="font-style:normal;font-weight:normal;font-size:0.35277778px;line-height:1.25;font-family:sans-serif;letter-spacing:0px;word-spacing:0px;fill:#000000;fill-opacity:1;stroke:none;stroke-width:0.26458332"
                   xml:space="preserve"><tspan
                     style="stroke-width:0.26458332"
                     y="169.33923"
                     x="53.853046"
                     id="tspan5823-5"
                     sodipodi:role="line">3</tspan></text>
                <text
                   transform="rotate(-10)"
                   id="text5825-35"
                   y="169.96274"
                   x="53.912903"
                   style="font-style:normal;font-weight:normal;font-size:0.35277778px;line-height:1.25;font-family:sans-serif;letter-spacing:0px;word-spacing:0px;fill:#000000;fill-opacity:1;stroke:none;stroke-width:0.26458332"
                   xml:space="preserve"><tspan
                     style="stroke-width:0.26458332"
                     y="169.96274"
                     x="53.912903"
                     id="tspan5823-62"
                     sodipodi:role="line">4</tspan></text>
                <text
                   transform="rotate(-10)"
                   id="text5825-9"
                   y="170.60135"
                   x="53.989117"
                   style="font-style:normal;font-weight:normal;font-size:0.35277778px;line-height:1.25;font-family:sans-serif;letter-spacing:0px;word-spacing:0px;fill:#000000;fill-opacity:1;stroke:none;stroke-width:0.26458332"
                   xml:space="preserve"><tspan
                     style="stroke-width:0.26458332"
                     y="170.60135"
                     x="53.989117"
                     id="tspan5823-1"
                     sodipodi:role="line">5</tspan></text>
                <text
                   transform="rotate(-10)"
                   id="text5825-2"
                   y="171.21632"
                   x="54.040607"
                   style="font-style:normal;font-weight:normal;font-size:0.35277778px;line-height:1.25;font-family:sans-serif;letter-spacing:0px;word-spacing:0px;fill:#000000;fill-opacity:1;stroke:none;stroke-width:0.26458332"
                   xml:space="preserve"><tspan
                     style="stroke-width:0.26458332"
                     y="171.21632"
                     x="54.040607"
                     id="tspan5823-7"
                     sodipodi:role="line">6</tspan></text>
                <text
                   transform="rotate(-13)"
                   id="text6468"
                   y="170.66768"
                   x="46.22279"
                   style="font-style:normal;font-weight:normal;font-size:0.35277778px;line-height:1.25;font-family:sans-serif;letter-spacing:0px;word-spacing:0px;fill:#000000;fill-opacity:1;stroke:none;stroke-width:0.26458332"
                   xml:space="preserve"><tspan
                     style="stroke-width:0.26458332"
                     y="170.66768"
                     x="46.22279"
                     id="tspan6466"
                     sodipodi:role="line">Marsellesa</tspan></text>
                <text
                   transform="rotate(-13)"
                   id="text6468-6"
                   y="173.23935"
                   x="46.341736"
                   style="font-style:normal;font-weight:normal;font-size:0.35277778px;line-height:1.25;font-family:sans-serif;letter-spacing:0px;word-spacing:0px;fill:#000000;fill-opacity:1;stroke:none;stroke-width:0.26458332"
                   xml:space="preserve"><tspan
                     style="stroke-width:0.26458332"
                     y="173.23935"
                     x="46.341736"
                     id="tspan6466-1"
                     sodipodi:role="line">Marsellesa</tspan></text>
              </g>
              <path
                 transform="matrix(0,23.878214,-23.878214,0,3814.0828,-1951.2068)"
                 style="opacity:1;fill:#ff0000;fill-opacity:1;stroke:#ff0000;stroke-width:0.01;stroke-miterlimit:4;stroke-dasharray:none"
                 id="path6986"
                 d="m 85.016104,155.21373 c -0.03606,0.0101 -0.07202,0.0208 -0.108447,0.0297 -0.06045,0.0116 -0.120706,0.0236 -0.181913,0.0304 -0.0702,0.005 -0.140402,0.01 -0.210611,0.0146 -0.0029,3.1e-4 -0.03919,0.004 -0.04383,0.005 -0.01315,0.003 -0.02286,0.008 -0.03525,0.0126 -0.0069,0.003 -0.03457,0.0131 -0.04091,0.0155 -0.04919,0.0138 -0.09892,0.0264 -0.149255,0.0354 -0.03857,0.007 -0.07732,0.0141 -0.116305,0.0188 -0.03839,0.002 -0.07552,0.0105 -0.112703,0.0195 -0.03691,0.008 -0.07377,0.0169 -0.110266,0.0268 -0.04886,0.016 -0.09915,0.0256 -0.149428,0.0357 -0.04149,0.0121 -0.08145,0.0287 -0.123057,0.0405 -0.03049,0.008 -0.05964,0.0205 -0.09006,0.0286 -0.02817,0.008 -0.05748,0.0105 -0.08629,0.0154 -0.02929,0.009 -0.05898,0.0173 -0.08794,0.0276 -0.02504,0.01 -0.05193,0.0119 -0.07829,0.0157 -0.02932,0.002 -0.05437,0.006 -0.08232,0.0155 -0.02672,0.009 -0.05478,0.012 -0.08273,0.014 -0.02225,0.001 -0.04455,0.001 -0.06683,0.001 -0.01979,1.4e-4 -0.037,0.005 -0.05698,0.003 -0.0055,-5.5e-4 -0.01103,-0.001 -0.01656,-0.002 0,0 0.09832,-0.0695 0.09832,-0.0695 v 0 c 0.0051,7e-4 0.01027,0.001 0.01546,0.002 0.01883,1.3e-4 0.03733,-0.005 0.05624,-0.004 0.02191,3e-5 0.04384,-8e-5 0.0657,-0.002 0.02754,-0.002 0.05483,-0.007 0.08105,-0.016 0.02734,-0.008 0.05503,-0.011 0.08319,-0.014 0.02612,-0.004 0.05243,-0.008 0.0772,-0.0175 0.02937,-0.009 0.05884,-0.0188 0.08889,-0.0259 0.0289,-0.004 0.05778,-0.008 0.0858,-0.0169 0.02953,-0.009 0.05893,-0.0192 0.08876,-0.0276 0.04134,-0.0125 0.08128,-0.0294 0.123359,-0.0393 0.05029,-0.009 0.09998,-0.0208 0.148796,-0.0363 0.037,-0.01 0.07411,-0.0193 0.111543,-0.0273 0.03735,-0.009 0.07487,-0.0155 0.113157,-0.0183 0.03855,-0.005 0.07699,-0.0116 0.115242,-0.0188 0.04996,-0.009 0.09966,-0.0212 0.147945,-0.0371 0.04177,-0.0161 0.07537,-0.0304 0.121368,-0.0298 0.06968,-0.003 0.139364,-0.008 0.208831,-0.0142 0.06147,-0.008 0.122301,-0.0199 0.182884,-0.033 0.03763,-0.01 0.07453,-0.0221 0.112256,-0.0314 0,0 -0.09602,0.0722 -0.09602,0.0722 z"
                 inkscape:connector-curvature="0" />
              <path
                 transform="matrix(0,23.878214,-23.878214,0,3814.0828,-1951.2068)"
                 style="opacity:1;fill:#ff0000;fill-opacity:1;stroke:#ff0000;stroke-width:0.01;stroke-miterlimit:4;stroke-dasharray:none"
                 id="path6988"
                 d="m 85.775075,158.34304 c -0.03907,-0.005 -0.07859,-0.006 -0.117948,-0.007 -0.04789,-2e-4 -0.09592,-0.004 -0.143344,0.004 -0.05642,0.0104 -0.112695,0.0214 -0.169382,0.0302 -0.06997,0.0142 -0.140691,0.0241 -0.211494,0.033 -0.05707,0.009 -0.114614,0.0141 -0.172003,0.0205 -0.04804,0.01 -0.09431,0.0264 -0.140924,0.0412 -0.03652,0.011 -0.07345,0.0207 -0.110444,0.03 -0.03986,0.008 -0.07955,0.0163 -0.119241,0.0248 -0.04642,0.008 -0.09375,0.009 -0.140584,0.0138 -0.04636,0.004 -0.09096,0.0181 -0.135772,0.0298 -0.0296,0.008 -0.05979,0.015 -0.08906,0.0247 -0.0265,0.01 -0.05109,0.0232 -0.076,0.0362 -0.005,0.003 -0.01007,0.006 -0.01511,0.009 -0.03057,0.0172 -2.64e-4,3.9e-4 -0.03009,0.0163 -0.0045,0.002 -0.01789,0.01 -0.01346,0.007 0.101584,-0.0588 0.116966,-0.0686 0.07796,-0.0442 -0.05531,0.0363 -0.11135,0.0708 -0.173651,0.0923 0.01853,-0.0143 -0.05502,0.0287 -0.03396,0.0165 0.03005,-0.0174 0.120866,-0.0685 0.09038,-0.0519 -0.136205,0.0743 -0.07123,0.0472 -0.125109,0.0692 -0.01287,0.004 -0.02572,0.006 -0.03849,0.0103 0,0 0.0937,-0.0723 0.0937,-0.0723 v 0 c 0.01272,-0.004 0.02569,-0.006 0.03784,-0.0116 0.0037,-0.002 0.01479,-0.007 0.01123,-0.005 -0.02976,0.0178 -0.12032,0.069 -0.0899,0.0523 0.04875,-0.0267 0.09509,-0.0608 0.147855,-0.0802 0.01205,-0.004 0.02368,-0.009 0.0351,-0.0148 0.0039,-0.002 0.01544,-0.009 0.01164,-0.006 -0.02561,0.0151 -0.127996,0.0747 -0.0771,0.0448 0.05824,-0.0394 0.121612,-0.0705 0.182896,-0.10479 0.02514,-0.0134 0.05062,-0.0262 0.07785,-0.0349 0.02924,-0.009 0.05896,-0.0157 0.08844,-0.0234 0.04458,-0.0114 0.08913,-0.0244 0.13531,-0.0272 0.04723,-0.005 0.09491,-0.007 0.141519,-0.0161 0.0398,-0.008 0.07971,-0.0163 0.11934,-0.0255 0.03617,-0.01 0.07267,-0.0179 0.108355,-0.0293 0.04713,-0.015 0.09396,-0.0325 0.143048,-0.0399 0.05646,-0.006 0.113033,-0.0101 0.169163,-0.0187 0.07112,-0.009 0.141945,-0.0202 0.212296,-0.0341 0.05723,-0.009 0.113988,-0.0212 0.171078,-0.0313 0.04775,-0.006 0.09582,-0.002 0.14384,-0.002 0.04077,7.4e-4 0.08162,10e-4 0.122222,0.006 0,0 -0.09802,0.0691 -0.09802,0.0691 z"
                 inkscape:connector-curvature="0" />
              <path
                 transform="matrix(0,23.878214,-23.878214,0,3814.0828,-1951.2068)"
                 style="opacity:1;fill:#ff0000;fill-opacity:1;stroke:#ff0000;stroke-width:0.01;stroke-miterlimit:4;stroke-dasharray:none"
                 id="path6990"
                 d="m 85.582761,157.71511 c -0.046,0.0131 -0.09267,0.0245 -0.139058,0.0363 -0.11666,0.0262 -0.234152,0.0484 -0.352216,0.0672 -0.09604,0.0112 -0.188131,0.0392 -0.278688,0.0718 -0.09462,0.0338 -0.191231,0.0613 -0.287426,0.0901 -0.103868,0.0341 -0.212432,0.0461 -0.32088,0.0539 -0.02005,0.001 -0.0401,0.002 -0.06017,0.003 -0.04005,0.002 -0.07117,0.002 -0.111019,0.006 -0.04668,0.004 -0.0929,0.0124 -0.139107,0.02 -0.05924,0.0108 -0.11668,0.0296 -0.175943,0.0402 -0.02064,0.005 -0.04116,0.005 -0.06207,0.003 0,0 0.09614,-0.0691 0.09614,-0.0691 v 0 c 0.01995,6.1e-4 0.03969,-4.7e-4 0.05933,-0.004 0.05773,-0.0109 0.114303,-0.0271 0.172239,-0.037 0.04579,-0.007 0.09147,-0.014 0.137682,-0.0176 0.04916,-0.004 0.0605,-0.003 0.110069,-0.005 0.01995,-8.9e-4 0.03989,-0.002 0.05983,-0.003 0.108765,-0.009 0.217303,-0.023 0.321431,-0.0573 0.09628,-0.029 0.193063,-0.0563 0.287514,-0.0909 0.03222,-0.0114 0.0565,-0.0205 0.08924,-0.0303 0.06156,-0.0184 0.125093,-0.0296 0.188668,-0.0383 0.119121,-0.0185 0.237656,-0.0409 0.354584,-0.0704 0.04864,-0.0133 0.09718,-0.027 0.145872,-0.0401 0,0 -0.09602,0.0722 -0.09602,0.0722 z"
                 inkscape:connector-curvature="0" />
              <path
                 transform="matrix(0,23.878214,-23.878214,0,3814.0828,-1951.2068)"
                 style="opacity:1;fill:#ff0000;fill-opacity:1;stroke:#ff0000;stroke-width:0.01;stroke-miterlimit:4;stroke-dasharray:none"
                 id="path6992"
                 d="m 85.460738,157.1386 c -0.0402,-0.003 -0.07968,0.004 -0.119107,0.0106 -0.04377,0.008 -0.08827,0.011 -0.13245,0.0159 -0.05172,0.006 -0.103186,0.0137 -0.154924,0.0195 -0.07452,0.01 -0.149604,0.0145 -0.224294,0.0225 -0.05713,0.006 -0.06781,0.009 -0.125339,0.0185 -0.138133,0.0224 -0.276088,0.0457 -0.413906,0.07 -0.01994,0.004 -0.03994,0.007 -0.05981,0.011 -0.03727,0.008 -0.07413,0.017 -0.111396,0.0246 -0.05877,0.012 -0.117935,0.0216 -0.177215,0.0306 -0.08778,0.0117 -0.17313,0.024 -0.257884,0.0501 -0.05055,0.0192 -0.102504,0.0333 -0.154889,0.0463 -0.03164,0.005 -0.06119,0.0179 -0.09179,0.0268 0,0 0.09415,-0.0726 0.09415,-0.0726 v 0 c 0.02956,-0.009 0.05885,-0.0186 0.08925,-0.0242 0.0523,-0.013 0.103502,-0.0292 0.154508,-0.0466 0.08281,-0.0231 0.168036,-0.0327 0.252998,-0.0445 0.05945,-0.009 0.11871,-0.0196 0.17767,-0.0318 0.04574,-0.009 0.06527,-0.0151 0.111073,-0.0239 0.01959,-0.004 0.0393,-0.007 0.05896,-0.0103 0.137906,-0.0237 0.276021,-0.0461 0.413915,-0.0699 0.02173,-0.004 0.04339,-0.008 0.06519,-0.0109 0.09521,-0.014 0.19163,-0.0182 0.286956,-0.0313 0.09693,-0.0115 0.193973,-0.023 0.29032,-0.0386 0.04147,-0.008 0.08292,-0.0139 0.125224,-0.0125 0,0 -0.09721,0.0706 -0.09721,0.0706 z"
                 inkscape:connector-curvature="0" />
              <path
                 transform="matrix(0,23.878214,-23.878214,0,3814.0828,-1951.2068)"
                 style="opacity:1;fill:#ff0000;fill-opacity:1;stroke:#ff0000;stroke-width:0.01;stroke-miterlimit:4;stroke-dasharray:none"
                 id="path6996"
                 d="m 85.216119,156.55563 c -0.05507,1.7e-4 -0.110193,0.007 -0.164943,0.0124 -0.09351,0.0133 -0.186657,0.0288 -0.279261,0.0474 -0.114772,0.0234 -0.228868,0.0505 -0.342325,0.0796 -0.137356,0.0349 -0.277247,0.0563 -0.418107,0.0702 -0.114684,0.008 -0.229529,0.0149 -0.344392,0.0203 -0.05844,-0.002 -0.11442,0.0148 -0.171021,0.0265 -0.0306,0.006 -0.06066,0.0136 -0.09172,0.0166 -0.02249,0.002 -0.04508,0.002 -0.06764,0.002 0,0 0.09637,-0.0701 0.09637,-0.0701 v 0 c 0.02216,-1.2e-4 0.04436,-5e-4 0.06642,-0.003 0.03008,-0.004 0.05958,-0.011 0.08946,-0.0162 0.05577,-0.0112 0.111247,-0.0252 0.168718,-0.0225 0.113055,-0.003 0.226132,-0.008 0.338904,-0.017 0.140942,-0.0143 0.28086,-0.0365 0.418104,-0.0723 0.114561,-0.0294 0.229602,-0.0575 0.345464,-0.0813 0.09328,-0.0186 0.187148,-0.034 0.281287,-0.0477 0.05702,-0.007 0.114161,-0.0137 0.171549,-0.0156 0,0 -0.09687,0.0704 -0.09687,0.0704 z"
                 inkscape:connector-curvature="0" />
              <path
                 transform="matrix(0,23.878214,-23.878214,0,3814.0828,-1951.2068)"
                 style="opacity:1;fill:#ff0000;fill-opacity:1;stroke:#ff0000;stroke-width:0.01;stroke-miterlimit:4;stroke-dasharray:none"
                 id="path6998"
                 d="m 85.039421,155.89354 c -0.05176,0.01 -0.100895,0.0296 -0.150554,0.0467 -0.07686,0.0258 -0.156673,0.0417 -0.236191,0.0568 -0.03331,0.006 -0.06648,0.013 -0.100117,0.0172 -0.01242,0.002 -0.02496,0.002 -0.03736,0.004 -0.02917,0.004 -0.0581,0.01 -0.08718,0.0146 -0.08482,0.0128 -0.170289,0.0204 -0.255855,0.0258 -0.04001,3.6e-4 -0.07927,0.008 -0.118806,0.0129 -0.0431,0.003 -0.0862,0.006 -0.1293,0.009 -0.0074,4.5e-4 -0.01474,5.4e-4 -0.02206,10e-4 -0.02099,0.002 -0.04174,0.007 -0.06267,0.0103 -0.01908,0.003 -0.02563,0.003 -0.04514,0.005 -0.05438,0.004 -0.108968,0.002 -0.163389,0.005 -0.04531,0.003 -0.09071,0.007 -0.135627,0.0136 -0.04622,0.009 -0.09227,0.017 -0.137455,0.0301 -0.03232,0.009 -0.06318,0.0228 -0.0942,0.0357 -0.02585,0.008 -0.04869,0.0233 -0.07294,0.0352 -0.02023,0.009 -0.04177,0.014 -0.06304,0.0201 0,0 0.09398,-0.0723 0.09398,-0.0723 v 0 c 0.0211,-0.006 0.04196,-0.0122 0.06159,-0.022 0.02388,-0.0124 0.04744,-0.0256 0.07308,-0.0341 0.03112,-0.0126 0.06215,-0.0258 0.09472,-0.0343 0.04515,-0.0119 0.09121,-0.0192 0.137039,-0.028 0.04512,-0.006 0.09055,-0.0108 0.136112,-0.0125 0.05452,-0.002 0.109171,-0.001 0.163551,-0.006 0.04354,-0.005 0.08648,-0.0137 0.130223,-0.0162 0.04324,-0.003 0.08657,-0.006 0.129681,-0.0103 0.03888,-0.005 0.07777,-0.0109 0.117151,-0.0105 0.08445,-0.004 0.168813,-0.0107 0.252242,-0.0247 0.0041,-7.1e-4 0.0829,-0.0144 0.0891,-0.0153 0.04594,-0.007 0.0921,-0.0123 0.137536,-0.0223 0.07903,-0.015 0.158458,-0.0301 0.234319,-0.0575 0.05182,-0.0185 0.103308,-0.0389 0.157555,-0.0492 0,0 -0.09602,0.0719 -0.09602,0.0719 z"
                 inkscape:connector-curvature="0" />
              <g
                 id="g1494"
                 transform="matrix(0.53718931,-0.19552092,0.19552092,0.53718931,-1.2464158,83.338716)">
                <path
                   style="fill:#d35f5f;stroke:#000000;stroke-width:1.19391072;stroke-linecap:butt;stroke-linejoin:miter;stroke-miterlimit:4;stroke-dasharray:none;stroke-opacity:1"
                   d="M 50,247 V 97 h 50 v 150 z"
                   id="path823"
                   inkscape:connector-curvature="0"
                   sodipodi:nodetypes="ccccc" />
                <path
                   style="fill:#4d4d4d;stroke:#000000;stroke-width:1.19391072;stroke-linecap:butt;stroke-linejoin:miter;stroke-miterlimit:4;stroke-dasharray:none;stroke-opacity:1"
                   d="M 62.499999,272 75,297 87.499999,272"
                   id="path837"
                   inkscape:connector-curvature="0"
                   sodipodi:nodetypes="ccc" />
                <path
                   style="fill:#f4d7d7;stroke:#000000;stroke-width:1.19391072;stroke-linecap:butt;stroke-linejoin:miter;stroke-miterlimit:4;stroke-dasharray:none;stroke-opacity:1"
                   d="m 50,247 12.5,25 h 25 L 100,247"
                   id="path825"
                   inkscape:connector-curvature="0"
                   sodipodi:nodetypes="cccc" />
                <path
                   style="fill:none;stroke:#000000;stroke-width:0.26458332px;stroke-linecap:butt;stroke-linejoin:miter;stroke-opacity:1"
                   d="M 65,247 V 97"
                   id="path831"
                   inkscape:connector-curvature="0"
                   sodipodi:nodetypes="cc" />
                <path
                   style="fill:none;stroke:#000000;stroke-width:0.26458332px;stroke-linecap:butt;stroke-linejoin:miter;stroke-opacity:1"
                   d="M 85,97 V 247"
                   id="path833"
                   inkscape:connector-curvature="0"
                   sodipodi:nodetypes="cc" />
                <path
                   style="fill:#f4d7d7;stroke:#000000;stroke-width:1.19391072;stroke-linecap:butt;stroke-linejoin:miter;stroke-miterlimit:4;stroke-dasharray:none;stroke-opacity:1"
                   d="M 50,77 V 47 h 50 v 29.999998"
                   id="path829"
                   inkscape:connector-curvature="0"
                   sodipodi:nodetypes="cccc" />
                <path
                   style="fill:#b3b3b3;stroke:#000000;stroke-width:1.19391072;stroke-linecap:butt;stroke-linejoin:miter;stroke-miterlimit:4;stroke-dasharray:none;stroke-opacity:1"
                   d="M 50,96.999998 45,97 V 77 h 60 v 20 l -5,-2e-6"
                   id="path827"
                   inkscape:connector-curvature="0"
                   sodipodi:nodetypes="cccccc" />
              </g>
            </g>
          </g>
        </g>
      </g>
    </g>
  </g>
</svg>
