<?xml version="1.0" encoding="UTF-8" standalone="no"?>
<!-- Created with Inkscape (http://www.inkscape.org/) -->

<svg
   xmlns:dc="http://purl.org/dc/elements/1.1/"
   xmlns:cc="http://creativecommons.org/ns#"
   xmlns:rdf="http://www.w3.org/1999/02/22-rdf-syntax-ns#"
   xmlns:svg="http://www.w3.org/2000/svg"
   xmlns="http://www.w3.org/2000/svg"
   xmlns:sodipodi="http://sodipodi.sourceforge.net/DTD/sodipodi-0.dtd"
   xmlns:inkscape="http://www.inkscape.org/namespaces/inkscape"
   width="59.562069"
   height="32.622158"
   viewBox="0 0 59.562069 32.622158"
   id="svg2"
   version="1.1"
   inkscape:version="0.91 r13725"
   sodipodi:docname="create_fieldbook.svg">
  <sodipodi:namedview
     id="base"
     pagecolor="#ffffff"
     bordercolor="#666666"
     borderopacity="1.0"
     inkscape:pageopacity="0.0"
     inkscape:pageshadow="2"
     inkscape:zoom="3.6203867"
     inkscape:cx="78.811135"
     inkscape:cy="-23.41071"
     inkscape:document-units="px"
     inkscape:current-layer="layer1"
     showgrid="true"
     showguides="true"
     fit-margin-top="2"
     fit-margin-left="10"
     fit-margin-right="10"
     fit-margin-bottom="2"
     inkscape:window-width="1375"
     inkscape:window-height="876"
     inkscape:window-x="2625"
     inkscape:window-y="24"
     inkscape:window-maximized="1"
     units="px">
    <inkscape:grid
       type="xygrid"
       id="grid3338"
       originx="-331.65758"
       originy="-480.61604" />
  </sodipodi:namedview>
  <defs
     id="defs4">
    <inkscape:perspective
       sodipodi:type="inkscape:persp3d"
       inkscape:vp_x="-13.348994 : 13.934045 : 1"
       inkscape:vp_y="0 : 1622.2205 : 0"
       inkscape:vp_z="50.507163 : 22.045147 : 1"
       inkscape:persp3d-origin="42.926618 : 24.462408 : 1"
       id="perspective4309" />
    <marker
       inkscape:stockid="EmptyTriangleOutL"
       orient="auto"
       refY="0"
       refX="0"
       id="EmptyTriangleOutL"
       style="overflow:visible"
       inkscape:isstock="true">
      <path
         id="path4306"
         d="m 5.77,0 -8.65,5 0,-10 8.65,5 z"
         style="fill:#ffffff;fill-rule:evenodd;stroke:#000000;stroke-width:1pt;stroke-opacity:1"
         transform="matrix(0.8,0,0,0.8,-4.8,0)"
         inkscape:connector-curvature="0" />
    </marker>
    <marker
       inkscape:stockid="Arrow2Lend"
       orient="auto"
       refY="0"
       refX="0"
       id="Arrow2Lend"
       style="overflow:visible"
       inkscape:isstock="true">
      <path
         id="path4167"
         style="fill:#000000;fill-opacity:1;fill-rule:evenodd;stroke:#000000;stroke-width:0.625;stroke-linejoin:round;stroke-opacity:1"
         d="M 8.7185878,4.0337352 -2.2072895,0.01601326 8.7185884,-4.0017078 c -1.7454984,2.3720609 -1.7354408,5.6174519 -6e-7,8.035443 z"
         transform="matrix(-1.1,0,0,-1.1,-1.1,0)"
         inkscape:connector-curvature="0" />
    </marker>
    <marker
       inkscape:stockid="TriangleInL"
       orient="auto"
       refY="0"
       refX="0"
       id="TriangleInL"
       style="overflow:visible"
       inkscape:isstock="true">
      <path
         id="path4279"
         d="m 5.77,0 -8.65,5 0,-10 8.65,5 z"
         style="fill:#000000;fill-opacity:1;fill-rule:evenodd;stroke:#000000;stroke-width:1pt;stroke-opacity:1"
         transform="scale(-0.8,-0.8)"
         inkscape:connector-curvature="0" />
    </marker>
    <marker
       inkscape:stockid="Arrow1Lend"
       orient="auto"
       refY="0"
       refX="0"
       id="Arrow1Lend"
       style="overflow:visible"
       inkscape:isstock="true">
      <path
         id="path4149"
         d="M 0,0 5,-5 -12.5,0 5,5 0,0 Z"
         style="fill:#000000;fill-opacity:1;fill-rule:evenodd;stroke:#000000;stroke-width:1pt;stroke-opacity:1"
         transform="matrix(-0.8,0,0,-0.8,-10,0)"
         inkscape:connector-curvature="0" />
    </marker>
    <marker
       inkscape:stockid="Arrow1Lstart"
       orient="auto"
       refY="0"
       refX="0"
       id="Arrow1Lstart"
       style="overflow:visible"
       inkscape:isstock="true">
      <path
         id="path4146"
         d="M 0,0 5,-5 -12.5,0 5,5 0,0 Z"
         style="fill:#000000;fill-opacity:1;fill-rule:evenodd;stroke:#000000;stroke-width:1pt;stroke-opacity:1"
         transform="matrix(0.8,0,0,0.8,10,0)"
         inkscape:connector-curvature="0" />
    </marker>
    <inkscape:perspective
       sodipodi:type="inkscape:persp3d"
       inkscape:vp_x="71.755521 : 13.985925 : 1"
       inkscape:vp_y="0 : 1622.2205 : 0"
       inkscape:vp_z="7.8993633 : 22.097027 : 1"
       inkscape:persp3d-origin="15.479898 : 24.514281 : 1"
       id="perspective4309-7" />
  </defs>
  <metadata
     id="metadata7">
    <rdf:RDF>
      <cc:Work
         rdf:about="">
        <dc:format>image/svg+xml</dc:format>
        <dc:type
           rdf:resource="http://purl.org/dc/dcmitype/StillImage" />
        <dc:title></dc:title>
      </cc:Work>
    </rdf:RDF>
  </metadata>
  <g
     inkscape:label="Layer 1"
     inkscape:groupmode="layer"
     id="layer1"
     transform="translate(-331.65757,-539.124)">
    <g
       id="g4948"
       transform="translate(-4.7189578,-11.04032)">
      <text
         sodipodi:linespacing="125%"
         id="text4547"
         y="580.16803"
         x="346.81674"
         style="font-style:normal;font-weight:normal;font-size:10px;line-height:125%;font-family:sans-serif;letter-spacing:0px;word-spacing:0px;fill:#000000;fill-opacity:1;stroke:none;stroke-width:1px;stroke-linecap:butt;stroke-linejoin:miter;stroke-opacity:1"
         xml:space="preserve"><tspan
           y="580.16803"
           x="346.81674"
           id="tspan4549"
           sodipodi:role="line">CREATE</tspan></text>
      <g
         transform="translate(-74.999997,-32)"
         id="g4857">
        <path
           style="fill:#008000;fill-opacity:1;fill-rule:evenodd;stroke:#000000;stroke-width:1px;stroke-linecap:butt;stroke-linejoin:miter;stroke-opacity:1"
           d="m 441.65757,600.49616 0,-15.3025 10,1 0,15 z"
           id="path4511-7"
           inkscape:connector-curvature="0"
           sodipodi:nodetypes="ccccc" />
        <path
           style="fill:#008000;fill-opacity:1;fill-rule:evenodd;stroke:#000000;stroke-width:1px;stroke-linecap:butt;stroke-linejoin:miter;stroke-opacity:1"
           d="m 430.65757,601.19366 0,-15 10,-1 0,15.3025 z"
           id="path4507-6"
           inkscape:connector-curvature="0"
           sodipodi:nodetypes="ccccc" />
        <path
           style="fill:#008000;fill-opacity:1;fill-rule:evenodd;stroke:#000000;stroke-width:1px;stroke-linecap:butt;stroke-linejoin:miter;stroke-opacity:1"
           d="m 430.15757,602.19366 0,-15 10,-1 0,15 z"
           id="path4507"
           inkscape:connector-curvature="0" />
        <g
           id="g4363"
           style="stroke:none;stroke-opacity:1">
          <g
             id="g4434"
             style="stroke:none;stroke-opacity:1">
            <path
               style="font-style:normal;font-weight:normal;font-size:medium;line-height:125%;font-family:sans-serif;letter-spacing:0px;word-spacing:0px;fill:#000000;fill-opacity:1;stroke:none;stroke-width:1px;stroke-linecap:butt;stroke-linejoin:miter;stroke-opacity:1"
               id="path4605"
               d="m 431.52353,591.88319 c 0,0 2.6644,-0.26644 2.6644,-0.26644 0,0 0,0.64371 0,0.64371 0,0 -2.03711,0.20372 -2.03711,0.20372 0,0 0,1.66608 0,1.66608 0,0 1.83837,-0.18384 1.83837,-0.18384 0,0 0,0.64372 0,0.64372 0,0 -1.83837,0.18384 -1.83837,0.18384 0,0 0,2.6998 0,2.6998 0,0 -0.62729,0.0627 -0.62729,0.0627 0,0 0,-5.65332 0,-5.65332 0,0 0,0 0,0"
               inkscape:connector-curvature="0" />
            <path
               style="font-style:normal;font-weight:normal;font-size:medium;line-height:125%;font-family:sans-serif;letter-spacing:0px;word-spacing:0px;fill:#000000;fill-opacity:1;stroke:none;stroke-width:1px;stroke-linecap:butt;stroke-linejoin:miter;stroke-opacity:1"
               id="path4607"
               d="m 435.81515,594.40754 c 0,0 0,2.07125 0,2.07125 0,0 1.00614,-0.10062 1.00614,-0.10062 0.33745,-0.0337 0.58691,-0.14326 0.74839,-0.32854 0.16355,-0.18801 0.24533,-0.45746 0.24533,-0.80835 0,-0.35341 -0.0818,-0.60524 -0.24533,-0.75549 -0.16148,-0.15299 -0.41094,-0.21261 -0.74839,-0.17886 0,0 -1.00614,0.10061 -1.00614,0.10061 0,0 0,0 0,0 m 0,-2.32494 c 0,0 0,1.70395 0,1.70395 0,0 0.9285,-0.0928 0.9285,-0.0928 0.3064,-0.0306 0.53413,-0.12284 0.68319,-0.27658 0.15112,-0.15648 0.22668,-0.37861 0.22668,-0.66639 0,-0.28525 -0.0756,-0.491 -0.22668,-0.61725 -0.14906,-0.12646 -0.37679,-0.17437 -0.68319,-0.14373 0,0 -0.9285,0.0928 -0.9285,0.0928 0,0 0,0 0,0 m -0.62729,-0.56584 c 0,0 1.60237,-0.16024 1.60237,-0.16024 0.47823,-0.0478 0.84673,0.0365 1.10551,0.25296 0.25878,0.21646 0.38817,0.5481 0.38817,0.99491 0,0.34584 -0.0662,0.62762 -0.19874,0.84534 -0.1325,0.21772 -0.3271,0.36467 -0.58381,0.44083 0.30847,0.0499 0.54758,0.19515 0.71734,0.43566 0.17183,0.23778 0.25775,0.54852 0.25775,0.93222 0,0.50488 -0.14078,0.90897 -0.42233,1.21228 -0.28156,0.30331 -0.68215,0.48095 -1.20178,0.53291 0,0 -1.66448,0.16645 -1.66448,0.16645 0,0 0,-5.65332 0,-5.65332 0,0 0,0 0,0"
               inkscape:connector-curvature="0" />
            <path
               inkscape:connector-curvature="0"
               style="fill:none;stroke:none;stroke-width:0.95162362;stroke-linejoin:round;stroke-miterlimit:4;stroke-dasharray:none;stroke-opacity:1"
               d="m 430.30261,587.70092 c 0,0 9.39477,-0.93947 9.39477,-0.93947 0,0 0,0 0,0 0,0 0,14.26202 0,14.26202 0,0 0,10e-6 0,10e-6 0,0 -9.39477,0.93947 -9.39477,0.93947 -1e-5,0 -1e-5,0 -1e-5,0 0,0 0,-14.26202 0,-14.26202 0,-10e-6 0,-10e-6 1e-5,-10e-6 0,0 0,0 0,0"
               id="rect4551" />
          </g>
        </g>
        <g
           id="g4844"
           transform="translate(-2.84242,-0.16853573)">
          <path
             inkscape:connector-curvature="0"
             id="path4511"
             d="m 444.99999,601.3622 0,-15 10,1 0,15 z"
             style="fill:#008000;fill-opacity:1;fill-rule:evenodd;stroke:#000000;stroke-width:1px;stroke-linecap:butt;stroke-linejoin:miter;stroke-opacity:1" />
          <g
             style="stroke:none;stroke-opacity:1"
             id="g4583">
            <g
               style="stroke:none;stroke-opacity:1"
               id="g4732">
              <g
                 style="stroke:none;stroke-opacity:1"
                 id="g4737">
                <path
                   id="path4610"
                   style="font-style:normal;font-weight:normal;font-size:medium;line-height:125%;font-family:sans-serif;letter-spacing:0px;word-spacing:0px;fill:#000000;fill-opacity:1;stroke:none;stroke-width:1px;stroke-linecap:butt;stroke-linejoin:miter;stroke-opacity:1"
                   d="m 446.53595,591.81771 c 0,0 0,4.39619 0,4.39619 0,0 0.75771,0.0758 0.75771,0.0758 0.63971,0.064 1.10758,-0.066 1.40363,-0.38976 0.29811,-0.3236 0.44717,-0.86658 0.44717,-1.62894 0,-0.75731 -0.14906,-1.32632 -0.44717,-1.70701 -0.29605,-0.38302 -0.76392,-0.60651 -1.40363,-0.67048 0,0 -0.75771,-0.0758 -0.75771,-0.0758 0,0 0,0 0,0 m -0.62729,-0.6913 c 0,0 1.28873,0.12887 1.28873,0.12887 0.89849,0.0899 1.55786,0.38424 1.97812,0.88318 0.42026,0.49642 0.63039,1.2293 0.63039,2.19866 0,0.9744 -0.21116,1.66894 -0.63349,2.08362 -0.42233,0.41468 -1.08067,0.5773 -1.97502,0.48787 0,0 -1.28873,-0.12888 -1.28873,-0.12888 0,0 0,-5.65332 0,-5.65332 0,0 0,0 0,0"
                   inkscape:connector-curvature="0" />
                <path
                   id="path4612"
                   style="font-style:normal;font-weight:normal;font-size:medium;line-height:125%;font-family:sans-serif;letter-spacing:0px;word-spacing:0px;fill:#000000;fill-opacity:1;stroke:none;stroke-width:1px;stroke-linecap:butt;stroke-linejoin:miter;stroke-opacity:1"
                   d="m 451.43001,594.63206 c 0,0 0,2.07124 0,2.07124 0,0 1.00614,0.10062 1.00614,0.10062 0.33745,0.0337 0.58691,-0.0259 0.74839,-0.17886 0.16355,-0.1553 0.24533,-0.4084 0.24533,-0.75929 0,-0.35341 -0.0818,-0.6216 -0.24533,-0.80456 -0.16148,-0.18528 -0.41094,-0.29479 -0.74839,-0.32854 0,0 -1.00614,-0.10061 -1.00614,-0.10061 0,0 0,0 0,0 m 0,-2.32495 c 0,0 0,1.70396 0,1.70396 0,0 0.92851,0.0928 0.92851,0.0928 0.30639,0.0306 0.53412,-0.016 0.68317,-0.13995 0.15113,-0.12625 0.2267,-0.33327 0.2267,-0.62105 0,-0.28525 -0.0756,-0.50611 -0.2267,-0.66259 -0.14905,-0.15627 -0.37678,-0.24973 -0.68317,-0.28036 0,0 -0.92851,-0.0929 -0.92851,-0.0929 0,0 0,0 0,0 m -0.62728,-0.69129 c 0,0 1.60237,0.16023 1.60237,0.16023 0.47822,0.0478 0.84673,0.20585 1.10551,0.47406 0.25878,0.26822 0.38817,0.62574 0.38817,1.07255 0,0.34584 -0.0662,0.61437 -0.19875,0.80559 -0.13249,0.19123 -0.3271,0.29925 -0.58381,0.32407 0.30847,0.11162 0.54758,0.30467 0.71734,0.57913 0.17184,0.27214 0.25775,0.60007 0.25775,0.98377 0,0.50488 -0.14078,0.88081 -0.42233,1.12781 -0.28155,0.247 -0.68215,0.34452 -1.20178,0.29256 0,0 -1.66447,-0.16645 -1.66447,-0.16645 0,0 0,-5.65332 0,-5.65332 0,0 0,0 0,0"
                   inkscape:connector-curvature="0" />
                <path
                   style="fill:none;stroke:none;stroke-width:0.95162362;stroke-linejoin:round;stroke-miterlimit:4;stroke-dasharray:none;stroke-opacity:1"
                   d="m 445.30261,586.76145 c 0,0 9.39477,0.93947 9.39477,0.93947 0,0 0,0 0,10e-6 0,0 0,14.26202 0,14.26202 0,0 0,0 0,0 0,0 -9.39477,-0.93947 -9.39477,-0.93947 -1e-5,0 -1e-5,-10e-6 -1e-5,-10e-6 0,0 0,-14.26202 0,-14.26202 0,0 0,0 1e-5,0 0,0 0,0 0,0"
                   id="rect4551-3"
                   inkscape:connector-curvature="0" />
              </g>
            </g>
          </g>
        </g>
        <path
           style="fill:none;fill-rule:evenodd;stroke:#000000;stroke-width:1px;stroke-linecap:butt;stroke-linejoin:miter;stroke-opacity:1"
           d="m 440.15757,601.24616 c 0,0 0.82936,-0.5 1,-0.5 0.17065,0 1,0.5 1,0.5"
           id="path4855"
           inkscape:connector-curvature="0"
           sodipodi:nodetypes="csc" />
      </g>
    </g>
  </g>
</svg>
