<?xml version="1.0" encoding="UTF-8" standalone="no"?>
<!-- Created with Inkscape (http://www.inkscape.org/) -->

<svg
   xmlns:dc="http://purl.org/dc/elements/1.1/"
   xmlns:cc="http://creativecommons.org/ns#"
   xmlns:rdf="http://www.w3.org/1999/02/22-rdf-syntax-ns#"
   xmlns:svg="http://www.w3.org/2000/svg"
   xmlns="http://www.w3.org/2000/svg"
   xmlns:sodipodi="http://sodipodi.sourceforge.net/DTD/sodipodi-0.dtd"
   xmlns:inkscape="http://www.inkscape.org/namespaces/inkscape"
   width="70"
   height="30"
   viewBox="0 0 18.520834 7.9374998"
   version="1.1"
   id="svg8"
   inkscape:version="0.92.3 (2405546, 2018-03-11)"
   sodipodi:docname="record_treatments.svg">
  <defs
     id="defs2">
    <clipPath
       clipPathUnits="userSpaceOnUse"
       id="clipPath2743">
      <rect
         style="opacity:0.2;fill:#000000;stroke:none;stroke-width:0.26458332"
         id="rect2745"
         width="4.7699947"
         height="2.656667"
         x="85.415047"
         y="154.46227" />
    </clipPath>
    <clipPath
       clipPathUnits="userSpaceOnUse"
       id="clipPath2847">
      <rect
         style="opacity:0.5;fill:#ffff00;stroke:none;stroke-width:0.09799203"
         id="rect2849"
         width="3.3463402"
         height="1.6731697"
         x="84.743073"
         y="154.44653" />
    </clipPath>
    <clipPath
       clipPathUnits="userSpaceOnUse"
       id="clipPath295">
      <rect
         style="opacity:0.8;fill:#ffff00;stroke:none;stroke-width:0.20931187"
         id="rect297"
         width="6.8482494"
         height="1.4549054"
         x="84.8368"
         y="155.66692" />
    </clipPath>
    <clipPath
       clipPathUnits="userSpaceOnUse"
       id="clipPath104">
      <ellipse
         clip-path="url(#clipPath295)"
         ry="1.1954318"
         rx="2.2518599"
         cy="155.4167"
         cx="88.256294"
         id="ellipse106"
         style="opacity:1;fill:#ffff00;stroke:#bb0000;stroke-width:0.07911;stroke-miterlimit:4;stroke-dasharray:none;stroke-opacity:1"
         transform="translate(0.24413171)" />
    </clipPath>
  </defs>
  <sodipodi:namedview
     id="base"
     pagecolor="#ffffff"
     bordercolor="#666666"
     borderopacity="1.0"
     inkscape:pageopacity="0.0"
     inkscape:pageshadow="2"
     inkscape:zoom="22.58701"
     inkscape:cx="36.250571"
     inkscape:cy="19.06942"
     inkscape:document-units="mm"
     inkscape:current-layer="g289"
     inkscape:document-rotation="0"
     showgrid="false"
     inkscape:window-width="1920"
     inkscape:window-height="1145"
     inkscape:window-x="1680"
     inkscape:window-y="27"
     inkscape:window-maximized="1"
     fit-margin-top="1"
     fit-margin-left="1"
     fit-margin-right="1"
     fit-margin-bottom="1"
     units="px" />
  <metadata
     id="metadata5">
    <rdf:RDF>
      <cc:Work
         rdf:about="">
        <dc:format>image/svg+xml</dc:format>
        <dc:type
           rdf:resource="http://purl.org/dc/dcmitype/StillImage" />
        <dc:title />
      </cc:Work>
    </rdf:RDF>
  </metadata>
  <g
     inkscape:label="Layer 1"
     inkscape:groupmode="layer"
     id="layer1"
     transform="translate(-74.192879,-154.4276)">
    <g
       id="g4958"
       transform="translate(-5.0000028)">
      <text
         xml:space="preserve"
         style="font-size:2.82222223px;font-family:sans-serif;stroke-width:0.26458332"
         x="82.358925"
         y="162.06055"
         id="text4898"><tspan
           sodipodi:role="line"
           id="tspan4896"
           x="82.358925"
           y="162.06055"
           style="font-size:2.82222223px;stroke-width:0.26458332">RECORD</tspan></text>
      <text
         xml:space="preserve"
         style="font-size:1.41111112px;line-height:1.25;font-family:sans-serif;letter-spacing:0px;word-spacing:0px;fill:#ffffff;stroke:#ffffff;stroke-width:0.26458332"
         x="100.05327"
         y="171.1115"
         id="text2099"><tspan
           sodipodi:role="line"
           id="tspan2097"
           x="100.05327"
           y="172.36"
           style="font-size:1.41111112px;fill:#ffffff;stroke:#ffffff;stroke-width:0.26458332" /></text>
      <text
         xml:space="preserve"
         style="font-size:0.70555556px;line-height:1.25;font-family:sans-serif;letter-spacing:0px;word-spacing:0px;fill:#ffffff;stroke:#000000;stroke-width:0.26458332"
         x="100.43595"
         y="170.97411"
         id="text2121"><tspan
           sodipodi:role="line"
           id="tspan2119"
           x="100.43595"
           y="171.59836"
           style="fill:#ffffff;stroke:#000000;stroke-width:0.26458332" /></text>
      <g
         id="g1034"
         transform="translate(-0.91075093)">
        <g
           id="g2899"
           transform="translate(-0.68960151)">
          <g
             id="g2779"
             transform="matrix(1.2952866,0,0,1.2952866,-26.614147,-47.209427)">
            <path
               style="opacity:0.1;fill:#000000;stroke:none;stroke-width:0.2573207px;stroke-linecap:butt;stroke-linejoin:miter;stroke-opacity:1"
               d="m 89.514152,159.86498 0.148345,-2.84461 0.110096,-0.28185 c 1.463462,-0.2295 0.966899,-0.30642 1.976949,-0.54907 l 0.34269,0.10039 2.034304,3.56381 z"
               id="path1926"
               inkscape:connector-curvature="0"
               sodipodi:nodetypes="ccccccc" />
            <g
               transform="matrix(0.80567734,0,0,0.80567734,22.767768,31.77393)"
               id="g2839">
              <path
                 sodipodi:nodetypes="ccc"
                 inkscape:connector-curvature="0"
                 id="path892-3-6-7-2-38-8"
                 d="m 85.449515,157.45147 c -0.179491,-0.0298 -0.953442,-0.0645 -1.334088,-0.83398 0.752028,0.087 0.859366,0.12035 1.334088,0.83398 z"
                 style="fill:#447821;stroke:#447821;stroke-width:0.03656866px;stroke-linecap:butt;stroke-linejoin:miter;stroke-opacity:1" />
              <path
                 sodipodi:nodetypes="csc"
                 inkscape:connector-curvature="0"
                 id="path892-05-0"
                 d="m 85.428899,156.87422 c 0.393861,-0.43692 1.063958,-0.12034 1.014696,-0.0994 -0.687505,0.29211 -0.911251,0.33314 -1.014696,0.0994 z"
                 style="fill:#2d5016;stroke:#225500;stroke-width:0.02417501px;stroke-linecap:butt;stroke-linejoin:miter;stroke-opacity:1" />
              <path
                 sodipodi:nodetypes="csc"
                 inkscape:connector-curvature="0"
                 id="path892-3-66-4"
                 d="m 85.428899,156.87422 c -0.280238,-0.46072 -0.735596,-0.45346 -0.707634,-0.38679 0.21214,0.50579 0.593175,0.49115 0.707634,0.38679 z"
                 style="fill:#447821;stroke:#447821;stroke-width:0.02930286px;stroke-linecap:butt;stroke-linejoin:miter;stroke-opacity:1" />
              <path
                 sodipodi:nodetypes="ccc"
                 inkscape:connector-curvature="0"
                 id="path892-3-6-5-4-7"
                 d="m 85.41505,157.11892 c -0.412677,6.8e-4 -0.309742,0.13405 -0.939329,-0.32013 0.307612,-0.41566 0.543011,-0.0573 0.939329,0.32013 z"
                 style="fill:#2d5016;stroke:#225500;stroke-width:0.03656866px;stroke-linecap:butt;stroke-linejoin:miter;stroke-opacity:1" />
              <path
                 sodipodi:nodetypes="ccc"
                 inkscape:connector-curvature="0"
                 id="path892-3-6-0-6"
                 d="m 85.510667,157.61399 c -0.387259,0.14259 -0.749442,0.69735 -1.496398,0.48589 0.146893,-0.4958 0.994918,-0.70495 1.496398,-0.48589 z"
                 style="fill:#225500;stroke:#225500;stroke-width:0.03656866px;stroke-linecap:butt;stroke-linejoin:miter;stroke-opacity:1" />
              <path
                 sodipodi:nodetypes="ccc"
                 inkscape:connector-curvature="0"
                 id="path892-3-6-7-04-8"
                 d="m 85.510667,157.61399 c 0.138248,0.1183 0.662344,0.68885 1.496401,0.48589 -0.550025,-0.52017 -0.644581,-0.58096 -1.496401,-0.48589 z"
                 style="fill:#2d5016;stroke:#225500;stroke-width:0.03656866px;stroke-linecap:butt;stroke-linejoin:miter;stroke-opacity:1" />
              <path
                 sodipodi:nodetypes="cssssssssc"
                 inkscape:connector-curvature="0"
                 id="path957-62-9"
                 d="m 85.410696,156.87371 c -0.05534,0.12304 -0.04862,0.27883 -0.02504,0.43294 0.01471,0.0961 0.07548,0.24139 0.07983,0.33852 0.0053,0.11751 -0.0714,0.86821 -0.06171,1.29749 2.76e-4,0.0123 0.157199,0.0252 0.156662,0.0135 -0.02161,-0.48963 -0.01054,-0.91172 0.0031,-1.34497 0.0031,-0.0971 -0.07454,-0.21232 -0.08926,-0.30836 -0.02328,-0.15189 -0.07691,-0.29974 -0.02711,-0.42777 0.0044,-0.0113 -0.0021,-0.0109 -0.01383,-0.008 z"
                 style="color:#000000;font-style:normal;font-variant:normal;font-weight:normal;font-stretch:normal;font-size:medium;line-height:normal;font-family:sans-serif;font-variant-ligatures:normal;font-variant-position:normal;font-variant-caps:normal;font-variant-numeric:normal;font-variant-alternates:normal;font-feature-settings:normal;text-indent:0;text-align:start;text-decoration:none;text-decoration-line:none;text-decoration-style:solid;text-decoration-color:#000000;letter-spacing:normal;word-spacing:normal;text-transform:none;writing-mode:lr-tb;direction:ltr;text-orientation:mixed;dominant-baseline:auto;baseline-shift:baseline;text-anchor:start;white-space:normal;shape-padding:0;clip-rule:nonzero;display:inline;overflow:visible;visibility:visible;opacity:1;isolation:auto;mix-blend-mode:normal;color-interpolation:sRGB;color-interpolation-filters:linearRGB;solid-color:#000000;solid-opacity:1;vector-effect:none;fill:#552200;fill-opacity:1;fill-rule:nonzero;stroke:none;stroke-width:0.03656866px;stroke-linecap:butt;stroke-linejoin:miter;stroke-miterlimit:4;stroke-dasharray:none;stroke-dashoffset:0;stroke-opacity:1;color-rendering:auto;image-rendering:auto;shape-rendering:auto;text-rendering:auto;enable-background:accumulate" />
              <path
                 sodipodi:nodetypes="ccc"
                 inkscape:connector-curvature="0"
                 id="path892-3-6-56-6-0"
                 d="m 85.449515,157.45147 c 0.356618,-0.20768 0.616965,-0.8169 1.38929,-0.73836 -0.05856,0.51378 -0.857383,0.867 -1.38929,0.73836 z"
                 style="fill:#2d5016;stroke:#225500;stroke-width:0.03656866px;stroke-linecap:butt;stroke-linejoin:miter;stroke-opacity:1" />
              <path
                 sodipodi:nodetypes="ccc"
                 inkscape:connector-curvature="0"
                 id="path892-3-6-7-3-7-6"
                 d="m 86.379473,156.38279 c -0.184698,-6.9e-4 -0.825145,0.17294 -0.964423,0.73613 0.77581,0.0276 0.689063,-0.38875 0.964423,-0.73613 z"
                 style="fill:#447821;stroke:#447821;stroke-width:0.03656866px;stroke-linecap:butt;stroke-linejoin:miter;stroke-opacity:1" />
            </g>
            <path
               style="opacity:0.2;fill:#ffff00;stroke:none;stroke-width:0.2573207px;stroke-linecap:butt;stroke-linejoin:miter;stroke-opacity:1"
               d="m 89.810843,159.86498 -0.148346,-2.84461 -0.101051,-0.32707 c -1.437884,-0.31583 -0.661409,-0.12447 -2.058341,-0.93625 l -1.896113,4.0966 z"
               id="path1926-3"
               inkscape:connector-curvature="0"
               sodipodi:nodetypes="cccccc" />
            <path
               clip-path="url(#clipPath104)"
               sodipodi:nodetypes="czccc"
               inkscape:connector-curvature="0"
               id="rect57"
               d="m 85.299744,155.28578 c 0,0 3.858118,-0.99088 3.40085,0 -0.457268,0.99088 0,1.67094 0,1.67094 h -3.40085 z"
               style="opacity:1;fill:#ffd42a;fill-opacity:1;stroke:none;stroke-width:0.20931187"
               transform="matrix(0.97589424,0,0,0.97589424,3.2667052,3.8422857)" />
            <g
               id="g289"
               transform="matrix(0.97589424,0,0,0.97589424,3.5049513,3.9355587)">
              <path
                 style="color:#000000;font-style:normal;font-variant:normal;font-weight:normal;font-stretch:normal;font-size:medium;line-height:normal;font-family:sans-serif;font-variant-ligatures:normal;font-variant-position:normal;font-variant-caps:normal;font-variant-numeric:normal;font-variant-alternates:normal;font-feature-settings:normal;text-indent:0;text-align:start;text-decoration:none;text-decoration-line:none;text-decoration-style:solid;text-decoration-color:#000000;letter-spacing:normal;word-spacing:normal;text-transform:none;writing-mode:lr-tb;direction:ltr;text-orientation:mixed;dominant-baseline:auto;baseline-shift:baseline;text-anchor:start;white-space:normal;shape-padding:0;clip-rule:nonzero;display:inline;overflow:visible;visibility:visible;opacity:1;isolation:auto;mix-blend-mode:normal;color-interpolation:sRGB;color-interpolation-filters:linearRGB;solid-color:#000000;solid-opacity:1;vector-effect:none;fill:#552200;fill-opacity:1;fill-rule:nonzero;stroke:none;stroke-width:0.07980198px;stroke-linecap:butt;stroke-linejoin:miter;stroke-miterlimit:4;stroke-dasharray:none;stroke-dashoffset:0;stroke-opacity:1;color-rendering:auto;image-rendering:auto;shape-rendering:auto;text-rendering:auto;enable-background:accumulate"
                 d="m 88.295166,155.5861 c -0.123543,0.26246 -0.239902,0.31722 -0.18726,0.64597 0.03283,0.20495 0.168504,0.51492 0.17821,0.72213 0.01179,0.25065 -0.15939,1.85203 -0.13777,2.76778 6.16e-4,0.0262 0.350941,0.0539 0.349742,0.0287 -0.04825,-1.04446 -0.02353,-1.94486 0.0069,-2.86904 0.0069,-0.20724 -0.166412,-0.45293 -0.199276,-0.65779 -0.05197,-0.324 -0.04035,-0.36185 0.07083,-0.63496 0.0098,-0.0241 -0.005,-0.0243 -0.03087,-0.017 z"
                 id="path957-62-9-3"
                 inkscape:connector-curvature="0"
                 sodipodi:nodetypes="cssssssssc" />
              <path
                 style="color:#000000;font-style:normal;font-variant:normal;font-weight:normal;font-stretch:normal;font-size:medium;line-height:normal;font-family:sans-serif;font-variant-ligatures:normal;font-variant-position:normal;font-variant-caps:normal;font-variant-numeric:normal;font-variant-alternates:normal;font-feature-settings:normal;text-indent:0;text-align:start;text-decoration:none;text-decoration-line:none;text-decoration-style:solid;text-decoration-color:#000000;letter-spacing:normal;word-spacing:normal;text-transform:none;writing-mode:lr-tb;direction:ltr;text-orientation:mixed;dominant-baseline:auto;baseline-shift:baseline;text-anchor:start;white-space:normal;shape-padding:0;clip-rule:nonzero;display:inline;overflow:visible;visibility:visible;opacity:1;isolation:auto;mix-blend-mode:normal;color-interpolation:sRGB;color-interpolation-filters:linearRGB;solid-color:#000000;solid-opacity:1;vector-effect:none;fill:#552200;fill-opacity:1;fill-rule:nonzero;stroke:none;stroke-width:0.03866086px;stroke-linecap:butt;stroke-linejoin:miter;stroke-miterlimit:4;stroke-dasharray:none;stroke-dashoffset:0;stroke-opacity:1;color-rendering:auto;image-rendering:auto;shape-rendering:auto;text-rendering:auto;enable-background:accumulate"
                 d="m 90.415509,156.00815 c -0.14079,-0.0228 -0.298038,0.0266 -0.448961,0.0929 -0.09409,0.0413 -0.22586,0.14312 -0.323852,0.17415 -0.11855,0.0375 -0.906138,0.16465 -1.341873,0.29201 -0.01242,0.003 0.01722,0.16744 0.02916,0.16365 0.494082,-0.15606 0.928154,-0.26023 1.374305,-0.36487 0.100056,-0.0235 0.196425,-0.13423 0.290466,-0.17555 0.148731,-0.0654 0.285049,-0.16056 0.42942,-0.14472 0.01274,0.001 0.01051,-0.005 0.0043,-0.0163 z"
                 id="path957-62-9-3-6"
                 inkscape:connector-curvature="0"
                 sodipodi:nodetypes="cssssssssc" />
              <path
                 style="fill:#2d5016;stroke:#1a5500;stroke-width:0.03036035px;stroke-linecap:butt;stroke-linejoin:miter;stroke-opacity:1"
                 d="m 88.898104,156.46609 c -0.360317,-0.19956 -0.368792,-0.0989 -0.583156,-0.57704 0.574356,-0.01 0.515608,0.24114 0.583156,0.57704 z"
                 id="path892-3-6-5-4-7-2-3-5-6"
                 inkscape:connector-curvature="0"
                 sodipodi:nodetypes="ccc" />
              <path
                 style="fill:#447821;stroke:#447821;stroke-width:0.03401712px;stroke-linecap:butt;stroke-linejoin:miter;stroke-opacity:1"
                 d="m 88.898104,156.46609 c 0.02881,0.15057 0.301811,0.60082 0.877942,0.48443 -0.09673,-0.64248 -0.492329,-0.40206 -0.877942,-0.48443 z"
                 id="path892-3-6-7-3-7-6-92-1-2"
                 inkscape:connector-curvature="0"
                 sodipodi:nodetypes="ccc" />
              <path
                 style="fill:#2d5016;stroke:#225500;stroke-width:0.02089482px;stroke-linecap:butt;stroke-linejoin:miter;stroke-opacity:1"
                 d="m 89.65843,156.34774 c -0.204407,-0.11755 -0.191573,-0.0222 -0.373355,-0.42677 0.27097,-0.11781 0.28506,0.1268 0.373355,0.42677 z"
                 id="path892-3-6-5-4-7-2-3-6"
                 inkscape:connector-curvature="0"
                 sodipodi:nodetypes="ccc" />
              <path
                 style="fill:#2d5016;stroke:#225500;stroke-width:0.01269297px;stroke-linecap:butt;stroke-linejoin:miter;stroke-opacity:1"
                 d="m 90.424338,156.01475 c -0.138421,-0.0368 -0.115891,0.0171 -0.286173,-0.19172 0.140476,-0.11173 0.187201,0.0296 0.286173,0.19172 z"
                 id="path892-3-6-5-4-7-2-3-2"
                 inkscape:connector-curvature="0"
                 sodipodi:nodetypes="ccc" />
              <path
                 style="fill:#447821;stroke:#447821;stroke-width:0.02288686px;stroke-linecap:butt;stroke-linejoin:miter;stroke-opacity:1"
                 d="m 89.644703,156.31298 c 0.0853,0.0719 0.414934,0.42713 0.883755,0.24029 -0.34198,-0.31955 -0.399352,-0.35507 -0.883755,-0.24029 z"
                 id="path892-3-6-7-2-38-8-36-2"
                 inkscape:connector-curvature="0"
                 sodipodi:nodetypes="ccc" />
              <path
                 style="fill:#2d5016;stroke:#225500;stroke-width:0.01808759px;stroke-linecap:butt;stroke-linejoin:miter;stroke-opacity:1"
                 d="m 90.12716,156.62281 c -0.06839,-0.0585 -0.327811,-0.34052 -0.74015,-0.24035 0.272046,0.25729 0.318857,0.28732 0.74015,0.24035 z"
                 id="path892-3-6-7-04-8-7"
                 inkscape:connector-curvature="0"
                 sodipodi:nodetypes="ccc" />
              <path
                 style="fill:#447821;stroke:#447821;stroke-width:0.03656866px;stroke-linecap:butt;stroke-linejoin:miter;stroke-opacity:1"
                 d="m 89.38701,156.38246 c -0.04712,-0.1786 -0.380622,-0.75227 -0.960653,-0.74104 0.174157,0.75651 0.553825,0.56498 0.960653,0.74104 z"
                 id="path892-3-6-7-3-7-6-92-9-0"
                 inkscape:connector-curvature="0"
                 sodipodi:nodetypes="ccc" />
              <path
                 style="fill:#447821;stroke:#447821;stroke-width:0.0115343px;stroke-linecap:butt;stroke-linejoin:miter;stroke-opacity:1"
                 d="m 90.775493,156.11761 c -0.02608,-0.0457 -0.169682,-0.17353 -0.359984,-0.10946 0.102147,0.19624 0.215723,0.10212 0.359984,0.10946 z"
                 id="path892-3-6-7-3-7-6-9-0"
                 inkscape:connector-curvature="0"
                 sodipodi:nodetypes="ccc" />
              <path
                 style="fill:#2d5016;stroke:#225500;stroke-width:0.01769439px;stroke-linecap:butt;stroke-linejoin:miter;stroke-opacity:1"
                 d="m 89.990482,156.13621 c 0.140929,0.14143 0.06011,0.15183 0.430922,0.21185 0.03698,-0.24753 -0.166162,-0.2054 -0.430922,-0.21185 z"
                 id="path892-3-6-5-4-7-2-3-2-6"
                 inkscape:connector-curvature="0"
                 sodipodi:nodetypes="ccc" />
              <path
                 style="fill:#447821;stroke:#447821;stroke-width:0.01607916px;stroke-linecap:butt;stroke-linejoin:miter;stroke-opacity:1"
                 d="m 89.621531,155.78397 c 0.07333,-3.1e-4 0.327779,0.0839 0.383072,0.35827 -0.308099,0.014 -0.273649,-0.18925 -0.383072,-0.35827 z"
                 id="path892-3-6-7-3-7-6-9-0-7"
                 inkscape:connector-curvature="0"
                 sodipodi:nodetypes="ccc" />
            </g>
            <g
               transform="matrix(0.80128369,0,0,0.80128369,21.201802,33.52037)"
               id="g2825">
              <g
                 transform="translate(-8.0720755,-1.3596891)"
                 id="g241">
                <path
                   sodipodi:nodetypes="ccc"
                   inkscape:connector-curvature="0"
                   id="path892-3-6-7-2-38-8-36"
                   d="m 91.348156,157.26589 c -0.179491,0.0298 -0.953443,0.0645 -1.334087,0.83399 0.752028,-0.087 0.859365,-0.12036 1.334087,-0.83399 z"
                   style="fill:#447821;stroke:#447821;stroke-width:0.03656866px;stroke-linecap:butt;stroke-linejoin:miter;stroke-opacity:1" />
                <path
                   sodipodi:nodetypes="csc"
                   inkscape:connector-curvature="0"
                   id="path892-05-0-0"
                   d="m 91.332953,156.92547 c 0.393862,-0.43693 1.063959,-0.12035 1.014697,-0.0994 -0.687505,0.29211 -0.911252,0.33315 -1.014697,0.0994 z"
                   style="fill:#2d5016;stroke:#225500;stroke-width:0.02417501px;stroke-linecap:butt;stroke-linejoin:miter;stroke-opacity:1" />
                <path
                   sodipodi:nodetypes="csc"
                   inkscape:connector-curvature="0"
                   id="path892-3-66-4-6"
                   d="m 91.332953,156.92547 c -0.280237,-0.46073 -0.735595,-0.45347 -0.707634,-0.3868 0.212141,0.50579 0.593176,0.49115 0.707634,0.3868 z"
                   style="fill:#447821;stroke:#447821;stroke-width:0.02930286px;stroke-linecap:butt;stroke-linejoin:miter;stroke-opacity:1" />
                <path
                   sodipodi:nodetypes="ccc"
                   inkscape:connector-curvature="0"
                   id="path892-3-6-5-4-7-2"
                   d="m 91.319105,157.17015 c -0.412677,6.9e-4 -0.309742,0.13406 -0.939329,-0.32012 0.307612,-0.41566 0.543012,-0.0573 0.939329,0.32012 z"
                   style="fill:#2d5016;stroke:#225500;stroke-width:0.03656866px;stroke-linecap:butt;stroke-linejoin:miter;stroke-opacity:1" />
                <path
                   sodipodi:nodetypes="ccc"
                   inkscape:connector-curvature="0"
                   id="path892-3-6-7-04-8-1"
                   d="m 91.348156,157.26589 c 0.138247,0.1183 0.662344,0.68886 1.4964,0.4859 -0.550024,-0.52017 -0.644581,-0.58095 -1.4964,-0.4859 z"
                   style="fill:#2d5016;stroke:#225500;stroke-width:0.03656866px;stroke-linecap:butt;stroke-linejoin:miter;stroke-opacity:1" />
                <path
                   sodipodi:nodetypes="cssssssssc"
                   inkscape:connector-curvature="0"
                   id="path957-62-9-8"
                   d="m 91.332953,156.92547 c -0.05534,0.12304 -0.04862,0.27882 -0.02505,0.43294 0.01471,0.0961 0.07548,0.24139 0.07983,0.33853 0.0053,0.11749 -0.0714,0.8682 -0.06171,1.29748 2.74e-4,0.0123 0.157199,0.0252 0.156661,0.0135 -0.02161,-0.48962 -0.01054,-0.91171 0.0031,-1.34496 0.0031,-0.0971 -0.07454,-0.21233 -0.08926,-0.30835 -0.02329,-0.15191 -0.07691,-0.29976 -0.02711,-0.42778 0.0044,-0.0113 -0.0021,-0.0108 -0.01382,-0.008 z"
                   style="color:#000000;font-style:normal;font-variant:normal;font-weight:normal;font-stretch:normal;font-size:medium;line-height:normal;font-family:sans-serif;font-variant-ligatures:normal;font-variant-position:normal;font-variant-caps:normal;font-variant-numeric:normal;font-variant-alternates:normal;font-feature-settings:normal;text-indent:0;text-align:start;text-decoration:none;text-decoration-line:none;text-decoration-style:solid;text-decoration-color:#000000;letter-spacing:normal;word-spacing:normal;text-transform:none;writing-mode:lr-tb;direction:ltr;text-orientation:mixed;dominant-baseline:auto;baseline-shift:baseline;text-anchor:start;white-space:normal;shape-padding:0;clip-rule:nonzero;display:inline;overflow:visible;visibility:visible;opacity:1;isolation:auto;mix-blend-mode:normal;color-interpolation:sRGB;color-interpolation-filters:linearRGB;solid-color:#000000;solid-opacity:1;vector-effect:none;fill:#552200;fill-opacity:1;fill-rule:nonzero;stroke:none;stroke-width:0.03656866px;stroke-linecap:butt;stroke-linejoin:miter;stroke-miterlimit:4;stroke-dasharray:none;stroke-dashoffset:0;stroke-opacity:1;color-rendering:auto;image-rendering:auto;shape-rendering:auto;text-rendering:auto;enable-background:accumulate" />
                <path
                   sodipodi:nodetypes="ccc"
                   inkscape:connector-curvature="0"
                   id="path892-3-6-7-3-7-6-92"
                   d="m 92.283529,156.43403 c -0.184698,-6.8e-4 -0.825146,0.17294 -0.964424,0.73612 0.77581,0.0276 0.689063,-0.38874 0.964424,-0.73612 z"
                   style="fill:#447821;stroke:#447821;stroke-width:0.03656866px;stroke-linecap:butt;stroke-linejoin:miter;stroke-opacity:1" />
              </g>
            </g>
          </g>
        </g>
      </g>
    </g>
  </g>
</svg>
